<?xml version="1.0" encoding="UTF-8" standalone="no"?>
<!DOCTYPE svg PUBLIC "-//W3C//DTD SVG 1.1//EN" "http://www.w3.org/Graphics/SVG/1.1/DTD/svg11.dtd">
<svg width="100%" height="100%" viewBox="0 0 756 194" version="1.1" xmlns="http://www.w3.org/2000/svg" xmlns:xlink="http://www.w3.org/1999/xlink" xml:space="preserve" xmlns:serif="http://www.serif.com/" style="fill-rule:evenodd;clip-rule:evenodd;stroke-linejoin:round;stroke-miterlimit:2;">
    <g transform="matrix(1,0,0,1,-22.4771,-353.101)">
        <g transform="matrix(1,0,0,1,2.47712,149.694)">
            <g transform="matrix(2.88238,0,0,2.88238,-1010.94,96.712)">
                <g>
                    <path d="M457.513,56.524L447.454,84.532L442.259,84.532L432.376,56.524L437.454,56.524L444.369,77.774C444.59,78.451 444.759,79.239 444.876,80.137L444.954,80.137C445.046,79.395 445.234,78.594 445.521,77.735L452.591,56.524L457.513,56.524Z" style="fill:rgb(72,95,199);fill-rule:nonzero;"/>
                    <rect x="461.204" y="56.524" width="4.785" height="28.008" style="fill:rgb(72,95,199);fill-rule:nonzero;"/>
                    <path d="M492.415,83.36C490.306,84.454 487.682,85.001 484.544,85.001C480.482,85.001 477.227,83.718 474.779,81.153C472.331,78.588 471.107,75.222 471.107,71.055C471.107,66.576 472.484,62.956 475.238,60.196C477.992,57.435 481.471,56.055 485.677,56.055C488.385,56.055 490.632,56.439 492.415,57.208L492.415,61.817C490.527,60.697 488.444,60.137 486.165,60.137C483.132,60.137 480.674,61.107 478.792,63.047C476.911,64.988 475.97,67.579 475.97,70.821C475.97,73.907 476.849,76.364 478.607,78.194C480.365,80.023 482.676,80.938 485.54,80.938C488.184,80.938 490.475,80.313 492.415,79.063L492.415,83.36Z" style="fill:rgb(72,95,199);fill-rule:nonzero;"/>
                    <path d="M513.451,84.532L497.728,84.532L497.728,56.524L512.826,56.524L512.826,60.469L502.376,60.469L502.376,68.399L512.005,68.399L512.005,72.325L502.376,72.325L502.376,80.606L513.451,80.606L513.451,84.532Z" style="fill:rgb(72,95,199);fill-rule:nonzero;"/>
                    <path d="M536.595,60.469L528.548,60.469L528.548,84.532L523.9,84.532L523.9,60.469L515.872,60.469L515.872,56.524L536.595,56.524L536.595,60.469Z" style="fill:rgb(72,95,199);fill-rule:nonzero;"/>
                    <path d="M562.337,84.532L556.908,84.532L552.435,77.032C552.031,76.342 551.637,75.753 551.253,75.264C550.869,74.776 550.479,74.376 550.081,74.063C549.684,73.751 549.251,73.523 548.783,73.379C548.314,73.236 547.786,73.165 547.201,73.165L545.326,73.165L545.326,84.532L540.697,84.532L540.697,56.524L549.915,56.524C551.23,56.524 552.441,56.68 553.548,56.993C554.655,57.305 555.619,57.777 556.439,58.409C557.259,59.04 557.9,59.828 558.363,60.772C558.825,61.716 559.056,62.82 559.056,64.083C559.056,65.072 558.91,65.98 558.617,66.807C558.324,67.634 557.907,68.37 557.367,69.014C556.826,69.659 556.175,70.209 555.413,70.665C554.652,71.12 553.796,71.472 552.845,71.719L552.845,71.797C553.353,72.084 553.796,72.4 554.173,72.745C554.551,73.09 554.909,73.445 555.247,73.809C555.586,74.174 555.921,74.587 556.253,75.049C556.585,75.512 556.953,76.049 557.357,76.661L562.337,84.532ZM545.326,60.294L545.326,69.395L549.193,69.395C549.909,69.395 550.57,69.284 551.175,69.063C551.781,68.842 552.305,68.523 552.747,68.106C553.19,67.689 553.535,67.182 553.783,66.583C554.03,65.984 554.154,65.313 554.154,64.571C554.154,63.23 553.73,62.182 552.884,61.426C552.038,60.671 550.82,60.294 549.232,60.294L545.326,60.294Z" style="fill:rgb(72,95,199);fill-rule:nonzero;"/>
                    <path d="M588.607,84.532L583.509,84.532L580.99,77.403L569.974,77.403L567.552,84.532L562.474,84.532L572.962,56.524L578.197,56.524L588.607,84.532ZM579.759,73.614L575.872,62.442C575.755,62.077 575.632,61.491 575.501,60.684L575.423,60.684C575.306,61.426 575.176,62.012 575.033,62.442L571.185,73.614L579.759,73.614Z" style="fill:rgb(72,95,199);fill-rule:nonzero;"/>
                    <rect x="592.435" y="56.524" width="4.785" height="28.008" style="fill:rgb(72,95,199);fill-rule:nonzero;"/>
                    <path d="M619.622,84.532L604.115,84.532L604.115,56.524L608.763,56.524L608.763,80.606L619.622,80.606L619.622,84.532Z" style="fill:rgb(72,95,199);fill-rule:nonzero;"/>
                </g>
            </g>
            <g transform="matrix(0.965926,0,-0.258819,0.965926,-229.76,-68.1825)">
                <g transform="matrix(1.0444,0,0,1.0444,242.859,32.2288)">
                    <rect x="161.809" y="358.045" width="47.874" height="47.874" style="fill:rgb(72,95,199);"/>
                </g>
                <g transform="matrix(0.835519,0,0,0.835519,326.658,67.0172)">
                    <rect x="161.809" y="358.045" width="47.874" height="47.874" style="fill:rgb(72,95,199);"/>
                </g>
                <g transform="matrix(0.417759,0,0,0.417759,324.255,236.594)">
                    <rect x="161.809" y="358.045" width="47.874" height="47.874" style="fill:rgb(72,95,199);"/>
                </g>
                <g transform="matrix(0.522199,0,0,0.522199,352.356,154.2)">
                    <rect x="161.809" y="358.045" width="47.874" height="47.874" style="fill:rgb(72,95,199);"/>
                </g>
                <g transform="matrix(0.522199,0,0,0.522199,392.356,114.2)">
                    <rect x="161.809" y="358.045" width="47.874" height="47.874" style="fill:rgb(72,95,199);"/>
                </g>
                <g transform="matrix(0.417759,0,0,0.417759,349.255,171.594)">
                    <rect x="161.809" y="358.045" width="47.874" height="47.874" style="fill:rgb(72,95,199);"/>
                </g>
                <g transform="matrix(0.417759,0,0,0.417759,434.255,131.594)">
                    <rect x="161.809" y="358.045" width="47.874" height="47.874" style="fill:rgb(72,95,199);"/>
                </g>
                <g transform="matrix(0.417759,0,0,0.417759,434.255,196.594)">
                    <rect x="161.809" y="358.045" width="47.874" height="47.874" style="fill:rgb(72,95,199);"/>
                </g>
                <g transform="matrix(0.522199,0,0,0.522199,303.003,269.2)">
                    <rect x="161.809" y="358.045" width="47.874" height="47.874" style="fill:rgb(72,95,199);"/>
                </g>
            </g>
            <g transform="matrix(2.7361,0,0,2.74068,135.865,-163.523)">
                <g>
                    <path d="M127.044,197.017L124.744,202.818C124.334,203.853 123.757,204.371 123.015,204.371C122.807,204.371 122.633,204.35 122.493,204.307L122.493,203.589C122.665,203.648 122.823,203.677 122.966,203.677C123.37,203.677 123.673,203.436 123.875,202.955L124.275,202.007L122.322,197.017L123.211,197.017L124.563,200.865C124.579,200.914 124.613,201.041 124.666,201.246L124.695,201.246C124.711,201.168 124.744,201.044 124.793,200.875L126.213,197.017L127.044,197.017Z" style="fill:rgb(72,95,199);fill-rule:nonzero;"/>
                    <path d="M129.993,202.134C129.254,202.134 128.664,201.901 128.223,201.434C127.782,200.967 127.561,200.347 127.561,199.576C127.561,198.736 127.791,198.08 128.25,197.608C128.709,197.136 129.329,196.9 130.11,196.9C130.855,196.9 131.437,197.129 131.856,197.588C132.274,198.047 132.483,198.684 132.483,199.498C132.483,200.295 132.258,200.934 131.807,201.414C131.356,201.894 130.751,202.134 129.993,202.134ZM130.051,197.574C129.537,197.574 129.13,197.749 128.831,198.099C128.531,198.449 128.381,198.931 128.381,199.546C128.381,200.139 128.533,200.606 128.836,200.948C129.138,201.29 129.544,201.461 130.051,201.461C130.569,201.461 130.967,201.293 131.245,200.958C131.523,200.622 131.663,200.145 131.663,199.527C131.663,198.902 131.523,198.42 131.245,198.082C130.967,197.743 130.569,197.574 130.051,197.574Z" style="fill:rgb(72,95,199);fill-rule:nonzero;"/>
                    <path d="M137.805,202.017L137.004,202.017L137.004,201.226L136.985,201.226C136.653,201.832 136.139,202.134 135.442,202.134C134.251,202.134 133.655,201.425 133.655,200.005L133.655,197.017L134.451,197.017L134.451,199.878C134.451,200.933 134.854,201.461 135.662,201.461C136.052,201.461 136.374,201.316 136.626,201.028C136.878,200.74 137.004,200.364 137.004,199.898L137.004,197.017L137.805,197.017L137.805,202.017Z" style="fill:rgb(72,95,199);fill-rule:nonzero;"/>
                    <path d="M142.029,197.828C141.889,197.72 141.687,197.667 141.423,197.667C141.082,197.667 140.796,197.828 140.566,198.15C140.337,198.472 140.222,198.912 140.222,199.468L140.222,202.017L139.421,202.017L139.421,197.017L140.222,197.017L140.222,198.047L140.242,198.047C140.356,197.696 140.53,197.422 140.764,197.225C140.999,197.028 141.261,196.929 141.55,196.929C141.759,196.929 141.918,196.952 142.029,196.998L142.029,197.828Z" style="fill:rgb(72,95,199);fill-rule:nonzero;"/>
                    <path d="M149.905,201.617C149.905,203.453 149.026,204.371 147.268,204.371C146.65,204.371 146.109,204.253 145.647,204.019L145.647,203.218C146.21,203.531 146.747,203.687 147.258,203.687C148.489,203.687 149.104,203.033 149.104,201.724L149.104,201.177L149.085,201.177C148.704,201.815 148.131,202.134 147.366,202.134C146.744,202.134 146.244,201.912 145.864,201.468C145.485,201.024 145.295,200.427 145.295,199.678C145.295,198.829 145.5,198.153 145.908,197.652C146.317,197.151 146.876,196.9 147.586,196.9C148.259,196.9 148.759,197.17 149.085,197.711L149.104,197.711L149.104,197.017L149.905,197.017L149.905,201.617ZM149.104,199.756L149.104,199.019C149.104,198.622 148.97,198.282 148.701,197.999C148.433,197.715 148.098,197.574 147.698,197.574C147.203,197.574 146.816,197.754 146.536,198.113C146.256,198.473 146.116,198.977 146.116,199.625C146.116,200.181 146.25,200.626 146.519,200.96C146.787,201.294 147.143,201.461 147.586,201.461C148.035,201.461 148.4,201.301 148.682,200.982C148.963,200.663 149.104,200.254 149.104,199.756Z" style="fill:rgb(72,95,199);fill-rule:nonzero;"/>
                    <path d="M155.105,202.017L154.304,202.017L154.304,201.236L154.285,201.236C153.936,201.835 153.424,202.134 152.747,202.134C152.249,202.134 151.859,202.003 151.577,201.739C151.296,201.475 151.155,201.125 151.155,200.689C151.155,199.755 151.705,199.211 152.805,199.058L154.304,198.848C154.304,197.999 153.961,197.574 153.274,197.574C152.672,197.574 152.128,197.779 151.643,198.189L151.643,197.369C152.135,197.056 152.701,196.9 153.342,196.9C154.517,196.9 155.105,197.522 155.105,198.765L155.105,202.017ZM154.304,199.488L153.098,199.654C152.727,199.706 152.447,199.798 152.258,199.93C152.07,200.062 151.975,200.295 151.975,200.63C151.975,200.875 152.062,201.074 152.236,201.229C152.411,201.383 152.642,201.461 152.932,201.461C153.329,201.461 153.657,201.321 153.916,201.043C154.175,200.765 154.304,200.412 154.304,199.986L154.304,199.488Z" style="fill:rgb(72,95,199);fill-rule:nonzero;"/>
                    <path d="M163.713,202.017L162.913,202.017L162.913,199.146C162.913,198.593 162.827,198.192 162.656,197.945C162.485,197.698 162.198,197.574 161.794,197.574C161.453,197.574 161.162,197.73 160.923,198.043C160.684,198.355 160.564,198.729 160.564,199.166L160.564,202.017L159.763,202.017L159.763,199.048C159.763,198.065 159.384,197.574 158.626,197.574C158.274,197.574 157.984,197.721 157.756,198.016C157.529,198.31 157.415,198.694 157.415,199.166L157.415,202.017L156.614,202.017L156.614,197.017L157.415,197.017L157.415,197.808L157.434,197.808C157.789,197.203 158.307,196.9 158.987,196.9C159.329,196.9 159.627,196.995 159.88,197.186C160.134,197.376 160.308,197.626 160.403,197.935C160.774,197.245 161.327,196.9 162.063,196.9C163.163,196.9 163.713,197.579 163.713,198.936L163.713,202.017Z" style="fill:rgb(72,95,199);fill-rule:nonzero;"/>
                    <path d="M169.246,199.717L165.715,199.717C165.728,200.274 165.878,200.704 166.165,201.006C166.451,201.309 166.845,201.461 167.346,201.461C167.909,201.461 168.427,201.275 168.899,200.904L168.899,201.656C168.46,201.975 167.878,202.134 167.156,202.134C166.449,202.134 165.894,201.907 165.491,201.453C165.087,200.999 164.885,200.36 164.885,199.537C164.885,198.759 165.106,198.125 165.547,197.635C165.988,197.145 166.536,196.9 167.19,196.9C167.844,196.9 168.35,197.112 168.709,197.535C169.067,197.958 169.246,198.545 169.246,199.297L169.246,199.717ZM168.425,199.039C168.422,198.576 168.311,198.217 168.091,197.96C167.871,197.702 167.566,197.574 167.175,197.574C166.798,197.574 166.477,197.709 166.213,197.979C165.95,198.249 165.787,198.602 165.725,199.039L168.425,199.039Z" style="fill:rgb(72,95,199);fill-rule:nonzero;"/>
                    <path d="M180.295,202.017L179.495,202.017L179.495,199.146C179.495,198.593 179.409,198.192 179.238,197.945C179.067,197.698 178.78,197.574 178.377,197.574C178.035,197.574 177.744,197.73 177.505,198.043C177.266,198.355 177.146,198.729 177.146,199.166L177.146,202.017L176.345,202.017L176.345,199.048C176.345,198.065 175.966,197.574 175.208,197.574C174.856,197.574 174.566,197.721 174.338,198.016C174.111,198.31 173.997,198.694 173.997,199.166L173.997,202.017L173.196,202.017L173.196,197.017L173.997,197.017L173.997,197.808L174.016,197.808C174.371,197.203 174.889,196.9 175.569,196.9C175.911,196.9 176.209,196.995 176.462,197.186C176.716,197.376 176.891,197.626 176.985,197.935C177.356,197.245 177.909,196.9 178.645,196.9C179.745,196.9 180.295,197.579 180.295,198.936L180.295,202.017Z" style="fill:rgb(72,95,199);fill-rule:nonzero;"/>
                    <path d="M183.899,202.134C183.16,202.134 182.57,201.901 182.129,201.434C181.688,200.967 181.467,200.347 181.467,199.576C181.467,198.736 181.697,198.08 182.156,197.608C182.615,197.136 183.235,196.9 184.016,196.9C184.762,196.9 185.343,197.129 185.762,197.588C186.18,198.047 186.389,198.684 186.389,199.498C186.389,200.295 186.164,200.934 185.713,201.414C185.262,201.894 184.657,202.134 183.899,202.134ZM183.958,197.574C183.443,197.574 183.036,197.749 182.737,198.099C182.437,198.449 182.288,198.931 182.288,199.546C182.288,200.139 182.439,200.606 182.742,200.948C183.044,201.29 183.45,201.461 183.958,201.461C184.475,201.461 184.873,201.293 185.151,200.958C185.43,200.622 185.569,200.145 185.569,199.527C185.569,198.902 185.43,198.42 185.151,198.082C184.873,197.743 184.475,197.574 183.958,197.574Z" style="fill:rgb(72,95,199);fill-rule:nonzero;"/>
                    <path d="M189.758,202.134C189.019,202.134 188.429,201.901 187.988,201.434C187.547,200.967 187.327,200.347 187.327,199.576C187.327,198.736 187.556,198.08 188.015,197.608C188.474,197.136 189.094,196.9 189.876,196.9C190.621,196.9 191.203,197.129 191.621,197.588C192.039,198.047 192.249,198.684 192.249,199.498C192.249,200.295 192.023,200.934 191.572,201.414C191.121,201.894 190.517,202.134 189.758,202.134ZM189.817,197.574C189.303,197.574 188.896,197.749 188.596,198.099C188.297,198.449 188.147,198.931 188.147,199.546C188.147,200.139 188.298,200.606 188.601,200.948C188.904,201.29 189.309,201.461 189.817,201.461C190.335,201.461 190.732,201.293 191.011,200.958C191.289,200.622 191.428,200.145 191.428,199.527C191.428,198.902 191.289,198.42 191.011,198.082C190.732,197.743 190.335,197.574 189.817,197.574Z" style="fill:rgb(72,95,199);fill-rule:nonzero;"/>
                    <path d="M197.795,202.017L196.995,202.017L196.995,201.168L196.975,201.168C196.604,201.812 196.031,202.134 195.256,202.134C194.628,202.134 194.126,201.911 193.75,201.463C193.374,201.015 193.186,200.406 193.186,199.634C193.186,198.808 193.394,198.145 193.811,197.647C194.228,197.149 194.783,196.9 195.476,196.9C196.163,196.9 196.663,197.17 196.975,197.711L196.995,197.711L196.995,194.615L197.795,194.615L197.795,202.017ZM196.995,199.756L196.995,199.019C196.995,198.615 196.861,198.274 196.594,197.994C196.327,197.714 195.989,197.574 195.579,197.574C195.09,197.574 194.706,197.753 194.426,198.111C194.146,198.469 194.006,198.964 194.006,199.595C194.006,200.171 194.141,200.626 194.409,200.96C194.678,201.294 195.038,201.461 195.491,201.461C195.937,201.461 196.299,201.299 196.577,200.977C196.856,200.655 196.995,200.248 196.995,199.756Z" style="fill:rgb(72,95,199);fill-rule:nonzero;"/>
                    <path d="M204.475,201.968C204.286,202.073 204.037,202.125 203.728,202.125C202.852,202.125 202.415,201.636 202.415,200.66L202.415,197.701L201.555,197.701L201.555,197.017L202.415,197.017L202.415,195.796L203.215,195.538L203.215,197.017L204.475,197.017L204.475,197.701L203.215,197.701L203.215,200.518C203.215,200.853 203.272,201.093 203.386,201.236C203.5,201.379 203.689,201.451 203.953,201.451C204.155,201.451 204.329,201.395 204.475,201.285L204.475,201.968Z" style="fill:rgb(72,95,199);fill-rule:nonzero;"/>
                    <path d="M208.152,197.828C208.012,197.72 207.81,197.667 207.546,197.667C207.205,197.667 206.919,197.828 206.69,198.15C206.46,198.472 206.345,198.912 206.345,199.468L206.345,202.017L205.544,202.017L205.544,197.017L206.345,197.017L206.345,198.047L206.365,198.047C206.479,197.696 206.653,197.422 206.887,197.225C207.122,197.028 207.384,196.929 207.673,196.929C207.882,196.929 208.041,196.952 208.152,196.998L208.152,197.828Z" style="fill:rgb(72,95,199);fill-rule:nonzero;"/>
                    <path d="M212.6,202.017L211.799,202.017L211.799,201.236L211.78,201.236C211.432,201.835 210.919,202.134 210.242,202.134C209.744,202.134 209.354,202.003 209.072,201.739C208.791,201.475 208.65,201.125 208.65,200.689C208.65,199.755 209.2,199.211 210.3,199.058L211.799,198.848C211.799,197.999 211.456,197.574 210.769,197.574C210.167,197.574 209.623,197.779 209.138,198.189L209.138,197.369C209.63,197.056 210.196,196.9 210.837,196.9C212.013,196.9 212.6,197.522 212.6,198.765L212.6,202.017ZM211.799,199.488L210.593,199.654C210.222,199.706 209.942,199.798 209.753,199.93C209.565,200.062 209.47,200.295 209.47,200.63C209.47,200.875 209.557,201.074 209.731,201.229C209.906,201.383 210.138,201.461 210.427,201.461C210.824,201.461 211.152,201.321 211.411,201.043C211.67,200.765 211.799,200.412 211.799,199.986L211.799,199.488Z" style="fill:rgb(72,95,199);fill-rule:nonzero;"/>
                    <path d="M217.517,201.788C217.133,202.019 216.677,202.134 216.15,202.134C215.437,202.134 214.862,201.902 214.424,201.439C213.986,200.975 213.767,200.373 213.767,199.634C213.767,198.811 214.003,198.149 214.475,197.649C214.947,197.15 215.577,196.9 216.365,196.9C216.804,196.9 217.192,196.981 217.527,197.144L217.527,197.964C217.156,197.704 216.759,197.574 216.336,197.574C215.824,197.574 215.405,197.757 215.078,198.123C214.751,198.489 214.587,198.97 214.587,199.566C214.587,200.152 214.741,200.614 215.049,200.953C215.356,201.291 215.769,201.461 216.287,201.461C216.723,201.461 217.133,201.316 217.517,201.026L217.517,201.788Z" style="fill:rgb(72,95,199);fill-rule:nonzero;"/>
                    <path d="M222.878,202.017L221.755,202.017L219.548,199.615L219.529,199.615L219.529,202.017L218.728,202.017L218.728,194.615L219.529,194.615L219.529,199.307L219.548,199.307L221.648,197.017L222.698,197.017L220.378,199.429L222.878,202.017Z" style="fill:rgb(72,95,199);fill-rule:nonzero;"/>
                    <path d="M227.717,199.717L224.187,199.717C224.2,200.274 224.35,200.704 224.636,201.006C224.923,201.309 225.317,201.461 225.818,201.461C226.381,201.461 226.899,201.275 227.371,200.904L227.371,201.656C226.931,201.975 226.35,202.134 225.627,202.134C224.921,202.134 224.366,201.907 223.962,201.453C223.559,200.999 223.357,200.36 223.357,199.537C223.357,198.759 223.578,198.125 224.019,197.635C224.46,197.145 225.007,196.9 225.662,196.9C226.316,196.9 226.822,197.112 227.18,197.535C227.538,197.958 227.717,198.545 227.717,199.297L227.717,199.717ZM226.897,199.039C226.894,198.576 226.782,198.217 226.563,197.96C226.343,197.702 226.038,197.574 225.647,197.574C225.269,197.574 224.949,197.709 224.685,197.979C224.421,198.249 224.259,198.602 224.197,199.039L226.897,199.039Z" style="fill:rgb(72,95,199);fill-rule:nonzero;"/>
                    <path d="M231.536,197.828C231.396,197.72 231.194,197.667 230.93,197.667C230.588,197.667 230.303,197.828 230.073,198.15C229.844,198.472 229.729,198.912 229.729,199.468L229.729,202.017L228.928,202.017L228.928,197.017L229.729,197.017L229.729,198.047L229.749,198.047C229.863,197.696 230.037,197.422 230.271,197.225C230.505,197.028 230.767,196.929 231.057,196.929C231.266,196.929 231.425,196.952 231.536,196.998L231.536,197.828Z" style="fill:rgb(72,95,199);fill-rule:nonzero;"/>
                </g>
            </g>
        </g>
    </g>
</svg>
